<?xml version="1.0" encoding="utf-8"?>
<!-- Generator: Adobe Illustrator 15.0.0, SVG Export Plug-In . SVG Version: 6.00 Build 0)  -->
<!DOCTYPE svg PUBLIC "-//W3C//DTD SVG 1.1//EN" "http://www.w3.org/Graphics/SVG/1.1/DTD/svg11.dtd">
<svg version="1.1" id="Слой_1" xmlns="http://www.w3.org/2000/svg" xmlns:xlink="http://www.w3.org/1999/xlink" x="0px" y="0px"
	 width="190.375px" height="35.427px" viewBox="0 0 190.375 35.427" enable-background="new 0 0 190.375 35.427"
	 xml:space="preserve">
<g>
	<path fill="#979797" d="M19.021,10.325h-3.85L14.504,6.81c-0.445-0.281-1.096-0.527-1.951-0.738s-1.764-0.316-2.725-0.316
		c-1.406,0-2.493,0.296-3.261,0.888S5.416,7.999,5.416,8.937c0,0.867,0.401,1.579,1.204,2.136s2.188,1.146,4.157,1.767
		c2.824,0.785,4.966,1.822,6.425,3.111s2.188,2.982,2.188,5.08c0,2.191-0.867,3.92-2.602,5.186s-4.02,1.898-6.855,1.898
		c-2.027,0-3.858-0.322-5.493-0.967s-2.997-1.535-4.087-2.672v-5.344h3.973l0.545,3.639c0.516,0.422,1.216,0.771,2.101,1.046
		s1.872,0.413,2.962,0.413c1.406,0,2.476-0.287,3.208-0.861s1.099-1.342,1.099-2.303c0-0.984-0.349-1.775-1.046-2.373
		s-1.919-1.16-3.665-1.688c-3.035-0.879-5.332-1.922-6.891-3.129s-2.338-2.859-2.338-4.957c0-2.074,0.879-3.771,2.637-5.089
		S6.904,1.835,9.564,1.8c1.969,0,3.762,0.299,5.379,0.896s2.977,1.395,4.078,2.391V10.325z"/>
	<path fill="#979797" d="M29.111,4.067v4.658h3.34v3.604h-3.34v9.686c0,0.738,0.152,1.266,0.457,1.582s0.715,0.475,1.23,0.475
		c0.352,0,0.659-0.015,0.923-0.044s0.56-0.079,0.888-0.149l0.439,3.709c-0.574,0.176-1.143,0.308-1.705,0.396
		s-1.172,0.132-1.828,0.132c-1.77,0-3.132-0.486-4.087-1.459s-1.433-2.514-1.433-4.623v-9.703h-2.795V8.726h2.795V4.067H29.111z"/>
	<path fill="#979797" d="M54.652,11.819l-1.775,0.264l-6.996,18.51c-0.551,1.371-1.286,2.52-2.206,3.445s-2.306,1.389-4.157,1.389
		c-0.434,0-0.841-0.035-1.222-0.105s-0.829-0.17-1.345-0.299l0.598-3.744c0.164,0.023,0.334,0.047,0.51,0.07
		s0.328,0.035,0.457,0.035c0.855,0,1.512-0.208,1.969-0.624s0.809-0.935,1.055-1.556l0.58-1.441L36.09,12.101l-1.775-0.281V8.726
		h9.316v3.094l-2.127,0.352l2.602,7.594l0.264,1.371l0.105,0.018l3.006-8.982l-2.145-0.352V8.726h9.316V11.819z"/>
	<path fill="#979797" d="M55.725,3.417V0.323H63.6v23.818l2.479,0.527v3.076h-10.09v-3.076l2.479-0.527V3.944L55.725,3.417z"/>
	<path fill="#979797" d="M76.854,28.114c-2.742,0-4.934-0.879-6.574-2.637s-2.461-3.99-2.461-6.697v-0.703
		c0-2.824,0.776-5.15,2.329-6.979s3.636-2.736,6.249-2.725c2.566,0,4.559,0.773,5.977,2.32S84.5,14.333,84.5,16.97v2.795H73.145
		l-0.035,0.105c0.094,1.254,0.513,2.285,1.257,3.094s1.755,1.213,3.032,1.213c1.137,0,2.08-0.114,2.83-0.343s1.57-0.589,2.461-1.081
		l1.389,3.164c-0.785,0.621-1.802,1.143-3.05,1.564S78.389,28.114,76.854,28.114z M76.396,12.329c-0.949,0-1.699,0.363-2.25,1.09
		s-0.891,1.682-1.02,2.865l0.053,0.088h6.293v-0.457c0-1.09-0.255-1.96-0.765-2.61S77.428,12.329,76.396,12.329z"/>
	<path fill="#090909" d="M87.066,3.716V2.151h7.822v1.564l-2.865,0.229v10.23h14.555V3.944l-2.865-0.229V2.151h2.865h2.092h2.865
		v1.564l-2.865,0.229V25.97l2.865,0.229v1.547h-7.822v-1.547l2.865-0.229V15.968H92.023V25.97l2.865,0.229v1.547h-7.822v-1.547
		l2.865-0.229V3.944L87.066,3.716z"/>
	<path fill="#090909" d="M114.541,17.954c0-2.801,0.768-5.098,2.303-6.891s3.568-2.689,6.1-2.689c2.543,0,4.582,0.896,6.117,2.689
		s2.303,4.09,2.303,6.891v0.58c0,2.813-0.765,5.112-2.294,6.899s-3.56,2.681-6.091,2.681c-2.555,0-4.6-0.894-6.135-2.681
		s-2.303-4.087-2.303-6.899V17.954z M116.65,18.534c0,2.203,0.557,4.055,1.67,5.555s2.666,2.25,4.658,2.25
		c1.957,0,3.492-0.75,4.605-2.25s1.67-3.352,1.67-5.555v-0.58c0-2.168-0.56-4.008-1.679-5.52s-2.663-2.268-4.632-2.268
		s-3.51,0.756-4.623,2.268s-1.67,3.352-1.67,5.52V18.534z"/>
	<path fill="#090909" d="M148.766,24.616c-0.598,1.113-1.416,1.975-2.453,2.584s-2.258,0.914-3.664,0.914
		c-2.004,0-3.572-0.68-4.703-2.039s-1.695-3.469-1.695-6.328v-9.229l-2.355-0.229V8.726h2.355h2.092v11.057
		c0,2.32,0.395,3.984,1.186,4.992s1.913,1.512,3.367,1.512c1.593,0,2.861-0.352,3.805-1.055s1.609-1.676,1.996-2.918V10.519
		l-2.707-0.229V8.726h2.707h2.109V25.97l2.549,0.229v1.547h-4.395L148.766,24.616z"/>
	<path fill="#090909" d="M170.246,14.597h-1.723l-0.246-2.689c-0.527-0.551-1.192-0.979-1.995-1.283s-1.726-0.457-2.769-0.457
		c-1.535,0-2.687,0.331-3.454,0.993s-1.151,1.438-1.151,2.329c0,0.879,0.331,1.605,0.993,2.18s1.983,1.078,3.964,1.512
		c2.262,0.504,3.955,1.192,5.08,2.065s1.688,2.06,1.688,3.56c0,1.582-0.642,2.862-1.925,3.841s-2.979,1.468-5.089,1.468
		c-1.406,0-2.687-0.196-3.841-0.589s-2.153-0.946-2.997-1.661v-3.832h1.705l0.299,2.707c0.563,0.563,1.274,0.97,2.136,1.222
		s1.761,0.378,2.698,0.378c1.523,0,2.725-0.334,3.604-1.002s1.318-1.477,1.318-2.426c0-0.891-0.366-1.67-1.099-2.338
		s-2.054-1.213-3.964-1.635c-2.262-0.492-3.94-1.146-5.036-1.96s-1.644-1.954-1.644-3.419c0-1.453,0.615-2.681,1.846-3.683
		s2.854-1.503,4.869-1.503c1.395,0,2.669,0.214,3.823,0.642s2.095,1.005,2.821,1.731L170.246,14.597z"/>
	<path fill="#090909" d="M182.85,28.114c-2.391,0-4.371-0.876-5.941-2.628s-2.355-3.981-2.355-6.688v-0.967
		c0-2.719,0.782-4.975,2.347-6.768s3.454-2.689,5.669-2.689c2.332,0,4.166,0.738,5.502,2.215s2.004,3.445,2.004,5.906v1.793h-13.43
		v0.51c0,2.133,0.571,3.923,1.714,5.37s2.64,2.171,4.491,2.171c1.301,0,2.414-0.182,3.34-0.545s1.717-0.885,2.373-1.564l0.896,1.441
		c-0.715,0.75-1.617,1.345-2.707,1.784S184.361,28.114,182.85,28.114z M182.568,10.167c-1.547,0-2.851,0.595-3.911,1.784
		s-1.679,2.681-1.854,4.474l0.035,0.088h11.145v-0.527c0-1.652-0.486-3.035-1.459-4.148S184.232,10.167,182.568,10.167z"/>
</g>
</svg>
